<svg id="Layer_1" data-name="Layer 1" xmlns="http://www.w3.org/2000/svg" viewBox="0 0 879.19 717.28">
  <g>
    <path d="M165.152,262.245c.3,3.67-3.525,7.086-4.155,10.543-.652,3.578,1.686,8.123.161,11.332-1.547,3.256-6.563,4.313-8.882,7.042s-2.555,7.848-5.519,9.9c-2.922,2.022-7.783.447-11.209,1.667-3.311,1.179-6.066,5.5-9.735,5.8s-7.086-3.525-10.543-4.155c-3.578-.652-8.123,1.686-11.332.161-3.256-1.547-4.313-6.563-7.042-8.882s-7.849-2.555-9.9-5.519c-2.022-2.922-.447-7.783-1.667-11.209-1.179-3.311-5.5-6.066-5.8-9.735s3.525-7.086,4.155-10.543c.652-3.578-1.686-8.122-.161-11.332,1.547-3.256,6.563-4.313,8.882-7.041s2.555-7.849,5.519-9.9c2.921-2.022,7.783-.447,11.209-1.667,3.311-1.179,6.066-5.5,9.735-5.8s7.086,3.525,10.543,4.155c3.578.652,8.122-1.686,11.332-.161,3.256,1.547,4.313,6.563,7.041,8.882s7.849,2.555,9.9,5.519c2.022,2.922.447,7.783,1.667,11.209C160.532,255.821,164.854,258.576,165.152,262.245Z" fill="#0f1011"></path>
    <path d="M106.141,305.389s7.736-4.093,6.028-25.151l15.979-2.948s-1.812,18.876,6.266,24.877Z" fill="#E98862"></path>
    <g opacity="0.15">
      <path d="M131.144,298.218,117.88,288.052l10.425-.1A28.732,28.732,0,0,0,131.144,298.218Z"></path>
    </g>
    <path d="M103.112,272.065c1.1,6.389,4.581,12.442,10.214,14.51a40.493,40.493,0,0,0,19.356,2.633c17.491-1.418,14.066-41.189,5.77-48.921s-32.671-2.862-35.646,10.055C101.266,257.023,102.065,265.983,103.112,272.065Z" fill="#E98862"></path>
    <g>
      <circle cx="128.136" cy="265.717" r="1.449" fill="#0f1011"></circle>
      <circle cx="139.568" cy="264.79" r="1.449" fill="#0f1011"></circle>
      <path d="M142.082,261.7h-.009l-3.838-.051a.682.682,0,0,1-.672-.69.671.671,0,0,1,.69-.671l3.838.051a.681.681,0,0,1-.009,1.361Z" fill="#0f1011"></path>
      <path d="M125.012,263.089a.681.681,0,0,1-.158-1.343l3.786-.908a.681.681,0,0,1,.316,1.325l-3.785.907A.671.671,0,0,1,125.012,263.089Z" fill="#0f1011"></path>
      <path d="M128.8,277.129s5.348.569,9.1-.738c0,0-.033,3.523-4.266,3.866S128.8,277.129,128.8,277.129Z" fill="#fff"></path>
    </g>
    <path d="M114.9,255.523a125.379,125.379,0,0,1-4.867,44.407S97.835,278.9,95.95,261.4c-1.768-16.411,10.332-26.088,18.5-27.907,31.052-6.915,33.286,15.767,33.286,15.767-5.657,11.764-36.2,11.712-36.2,11.712" fill="#0f1011"></path>
    <path d="M120.814,271.956a6.143,6.143,0,0,1-12.245.993,6.042,6.042,0,0,1,5.626-6.62C118.573,266.191,120.54,268.574,120.814,271.956Z" fill="#E98862"></path>
    <g opacity="0.15">
      <path d="M134.562,273.76a.5.5,0,0,1-.147-.978l2.948-.9-2.057-4.592a.5.5,0,1,1,.912-.409l2.289,5.109a.5.5,0,0,1-.31.683l-3.489,1.068A.5.5,0,0,1,134.562,273.76Z"></path>
    </g>
  </g>
  <path d="M879.19,717.28H0c9.634-24.567,27.424-45.408,52.5-51.59,36.686-9.032,75.511,15.8,112.116,6.465,20.8-5.3,37.17-20.745,54.374-33.57C283.9,590.191,372.841,575.893,449.653,601.5c40.145,13.382,76.726,36.783,117.851,46.737,53.179,12.87,108.792,2.2,163.479.437C784.24,646.962,860.553,668.664,879.19,717.28Z" fill="#f3f5fd"></path>
  <g>
    <rect x="209.944" width="621.087" height="449.786" fill="#dee8f5"></rect>
    <rect x="209.944" width="621.087" height="37.051" fill="#c1d8ed"></rect>
    <circle cx="810.229" cy="18.526" r="9.296" fill="#fff"></circle>
  </g>
  <g>
    <g>
      <rect x="533.866" y="259.364" width="259.213" height="155.654" fill="#c1d8ed"></rect>
      <rect x="559.555" y="357.002" width="25.592" height="33.144" fill="#fff"></rect>
      <rect x="695.505" y="327.172" width="25.592" height="62.974" fill="#fff"></rect>
      <rect x="604.872" y="329.27" width="25.592" height="60.875" fill="#fff"></rect>
      <rect x="650.188" y="358.659" width="25.592" height="31.488" fill="#fff"></rect>
      <rect x="740.822" y="298.398" width="25.592" height="91.748" fill="#fff"></rect>
    </g>
    <g>
      <rect x="243.894" y="259.364" width="259.213" height="155.654" fill="#c1d8ed"></rect>
      <rect x="269.583" y="306.073" width="25.592" height="84.073" fill="#fff"></rect>
      <rect x="405.533" y="337.191" width="25.592" height="52.955" fill="#fff"></rect>
      <rect x="314.9" y="358.659" width="25.592" height="31.487" fill="#fff"></rect>
      <rect x="360.216" y="314.166" width="25.592" height="75.98" fill="#fff"></rect>
      <rect x="450.85" y="327.179" width="25.592" height="62.967" fill="#fff"></rect>
    </g>
    <g>
      <rect x="533.866" y="72.767" width="259.213" height="155.654" fill="#c1d8ed"></rect>
      <rect x="559.555" y="131.648" width="25.592" height="71.902" fill="#fff"></rect>
      <rect x="695.505" y="140.575" width="25.592" height="62.974" fill="#fff"></rect>
      <rect x="604.872" y="112.625" width="25.592" height="90.925" fill="#fff"></rect>
      <rect x="650.188" y="152.97" width="25.592" height="50.58" fill="#fff"></rect>
      <rect x="740.822" y="127.264" width="25.592" height="76.286" fill="#fff"></rect>
    </g>
    <g>
      <rect x="243.894" y="72.767" width="259.213" height="155.654" fill="#c1d8ed"></rect>
      <rect x="269.583" y="161.392" width="25.592" height="42.158" fill="#fff"></rect>
      <rect x="405.533" y="112.625" width="25.592" height="90.925" fill="#fff"></rect>
      <rect x="314.9" y="112.625" width="25.592" height="90.925" fill="#fff"></rect>
      <rect x="360.216" y="131.648" width="25.592" height="71.902" fill="#fff"></rect>
      <rect x="450.85" y="172.062" width="25.592" height="31.488" fill="#fff"></rect>
    </g>
  </g>
  <g>
    <path d="M171.507,706.461l-20.854-2.48c.939-7.893,2-17.374,2.073-18.928,0,.1,0,.181,0,.245h21C173.721,685.927,173.721,687.843,171.507,706.461Z" fill="#E98862"></path>
    <path d="M87.831,708.972l-21-.069s.07-21.685.07-23.605h21C87.9,687.224,87.831,708.972,87.831,708.972Z" fill="#E98862"></path>
    <path d="M142.259,699.83l36.994-.63c-1.737-44.032-1.843-90.219-2.385-134.357-7.221-47.573-11.024-99.816-19.936-147.049L79.807,414s-2.2,31.128-2.96,43.553C73.14,517.833,65.938,629.5,61.419,698.638l36.868,3.115c6.643-67.786,16.923-166.556,23.246-237.766,7.261,34.669,12.2,70.567,18.514,104.939C141.309,611.952,142.378,656.932,142.259,699.83Z" fill="#262626"></path>
    <path d="M113.359,717.094a4.108,4.108,0,0,0,4.076-4.427h0a4.108,4.108,0,0,0-2.658-3.53l-24.443-8.186a3.461,3.461,0,0,0-2.872.319,19.1,19.1,0,0,1-11.468,3.4,17.031,17.031,0,0,1-8.82-3.222,1.547,1.547,0,0,0-2.528,1.2V714.6a2.678,2.678,0,0,0,2.689,2.678Z" fill="#c1d8ed"></path>
    <path d="M197.093,717.094a4.108,4.108,0,0,0,4.076-4.427h0a4.107,4.107,0,0,0-2.659-3.53l-24.442-8.186a3.46,3.46,0,0,0-2.872.319,19.107,19.107,0,0,1-11.468,3.4,17.035,17.035,0,0,1-8.821-3.222,1.546,1.546,0,0,0-2.527,1.2V714.6a2.677,2.677,0,0,0,2.689,2.678Z" fill="#c1d8ed"></path>
    <g>
      <g>
        <path d="M212.044,305.415s.15-12.01,8.735-11.386c5.416.394,31.151-.8,31.534,1.544.948,5.8-22.592,7.218-24.728,12.623Z" fill="#E98862"></path>
        <path d="M217.739,294.414s11.949-3.894,14.886-3.2c2.6.618-2.82,4.85-2.82,4.85Z" fill="#E98862"></path>
      </g>
      <g>
        <path d="M161.75,415.417c-4.189,9.63-81.327,13.63-82.427-3.31-.7-10.78,8.721-20.19,8.721-41.2s-19.373-42.769-3.623-58.519c4.57-4.57,7.39-12.591,17.01-12.6.72,5.61,34.78,5.63,35.04.13,1.3.02,2.31.04,2.94.07,33.18,1.43,15.474,39.19,15.154,66.93C154.175,399.377,166.071,405.5,161.75,415.417Z" fill="#fff"></path>
        <path d="M136.471,299.917c-.26,5.5-3.25,13.59-12.48,14.2-12.3.81-21.84-8.72-22.56-14.33h.03C113.571,299.787,129.411,299.807,136.471,299.917Z" fill="#E98862"></path>
        <path d="M211.035,298.4l-21.407,39.969-32.961-32.154c-2.975-3.777-7.663-6.131-14.831-6.445-.545-.024-6.168-.2-6.5.133-2.01,2.01-3.119,37.424-2.119,57.1,1.092,21.3-.031,47.9.985,63.192a7.268,7.268,0,0,0,8.333,6.713c10.782-1.648,19.19-4.457,20.416-7.273,4.319-9.92-5.65-20.262-5.26-52.722.1-8.736,1.583-18.5,2.618-27.813l24.651,24.049a10.5,10.5,0,0,0,16.588-2.559l28-52.28Z" fill="#FBAAFD"></path>
        <path d="M179.4,374.287l-55.733,1.7L111.72,351c-1.927-19.145-4.479-35.461-5.65-44.02-1.5-7.927-.7-7.366-4.462-7.369-9.62.01-17.687,3.137-22.257,7.707-15.75,15.75,3.58,42.59,3.58,63.59s-9.5,30.42-8.8,41.2c.431,6.733,3.873,15.251,29.824,17.076a8.22,8.22,0,0,0,8.735-7.2,224.158,224.158,0,0,0,1.454-24.35,10.857,10.857,0,0,0,2.743.369c.111,0,.223,0,.334,0l62.838-1.917Z" fill="#FBAAFD"></path>
        <path d="M98.949,323.525l2.48-8.13-4.78-3.13,3.93-12.63a58.022,58.022,0,0,1,7.21.15c2.36,7.89,4.9,41.77,5.82,55Z" fill="#FBAAFD"></path>
        <path d="M140.349,315.4l3.7,12.13-10.69,32.58s-2.13-49.22.7-60.25a25.628,25.628,0,0,1,3.008-.226c2.054-.028,4.165.111,4.165.111l3.9,12.525Z" fill="#FBAAFD"></path>
        <g opacity="0.24">
          <path d="M98.949,323.525l2.48-8.13-4.78-3.13,3.93-12.63a58.022,58.022,0,0,1,7.21.15c2.36,7.89,4.9,41.77,5.82,55Z" fill="#fff"></path>
        </g>
        <g opacity="0.24">
          <path d="M140.349,315.4l3.7,12.13-10.69,32.58s-2.13-49.22.7-60.25a25.628,25.628,0,0,1,3.008-.226c2.054-.028,4.165.111,4.165.111l3.9,12.525Z" fill="#fff"></path>
        </g>
        <g>
          <g>
            <path d="M174.912,322.3,162.77,373.274a5.4,5.4,0,0,0,5.251,6.65h71.584a5.4,5.4,0,0,0,5.206-3.97L258.8,324.983a5.4,5.4,0,0,0-5.206-6.828H180.164A5.4,5.4,0,0,0,174.912,322.3Z" fill="#9ebcea"></path>
            <rect x="134.114" y="373.579" width="92.863" height="6.344" rx="3.172" fill="#9ebcea"></rect>
          </g>
          <circle cx="213.717" cy="348.536" r="8.466" fill="#fff"></circle>
        </g>
        <path d="M197.413,386.614c-4.49,2.77-11.44,4.08-17.5,4.56l-.341-11.04c2.851-.08,7.231-.38,11.52-.21,1.939-1.581,3.055-2.051,5.045-4.04,2.118-2.118,7.676-3.39,8.726,0S201.353,384.174,197.413,386.614Z" fill="#E98862"></path>
      </g>
    </g>
  </g>
  <g>
    <g>
      <circle cx="810.229" cy="511.948" r="51.057" fill="#AAAAAA"></circle>
      <g opacity="0.29">
        <circle cx="810.229" cy="511.948" r="33.098" fill="#fff"></circle>
      </g>
    </g>
    <path d="M799.4,523.77l3.087-4.787c2.447,1.875,4.588,2.831,6.864,2.831,2.729,0,3.929-1.132,3.929-3.323,0-4.953-12.708-4.864-12.708-13.551,0-5.585,3.869-9.142,9.969-9.142a11.937,11.937,0,0,1,9.165,4.084l-3.541,4.056c-1.75-1.591-3.234-2.429-5.244-2.429-2.316,0-3.573.934-3.573,3.1,0,4.591,12.708,4.19,12.708,13.392,0,5.528-3.658,9.527-10.705,9.527A16.016,16.016,0,0,1,799.4,523.77Zm8.467-32.69h4.7v6.933h-4.7Zm0,33.555h4.7v7.608h-4.7Z" fill="#fff"></path>
  </g>
  <g>
    <rect x="751.857" y="691.298" width="115.041" height="25.982" rx="8.513" fill="#AAAAAA"></rect>
    <rect x="736.598" y="665.316" width="115.041" height="25.982" rx="8.513" fill="#AAAAAA"></rect>
    <rect x="751.857" y="639.333" width="115.041" height="25.982" rx="8.513" fill="#AAAAAA"></rect>
    <rect x="744.228" y="613.823" width="115.041" height="25.982" rx="8.513" fill="#AAAAAA"></rect>
    <rect x="728.968" y="587.84" width="115.041" height="25.982" rx="8.513" fill="#AAAAAA"></rect>
    <rect x="744.228" y="561.858" width="115.041" height="25.982" rx="8.513" fill="#AAAAAA"></rect>
  </g>
</svg>