<svg id="Layer_1" data-name="Layer 1" xmlns="http://www.w3.org/2000/svg" viewBox="0 0 717.876 525.226">
  <path d="M71.155,525.226a59.138,59.138,0,0,1-55.69-39.088C-2.675,435.605-18.659,342,52.366,240.746,130.9,128.793,130.9,13.056,241.4,1.2,414.513-17.366,462.9,184.472,540.575,231.44c67.111,40.581,164.3,101.433,177,228.615a59.242,59.242,0,0,1-58.919,65.171Z" fill="#f3f5fd"></path>
  <g>
    <g>
      <path d="M274.517,514.408l-20.853-2.481c.938-7.892,2-17.374,2.072-18.928,0,.1,0,.181,0,.245h21C276.731,493.874,276.731,495.79,274.517,514.408Z" fill="#E98862"></path>
      <path d="M190.841,516.918l-21-.069s.071-21.684.071-23.605h21C190.912,495.17,190.841,516.918,190.841,516.918Z" fill="#E98862"></path>
      <path d="M245.269,507.776l37-.63c-1.738-44.032-1.845-90.219-2.386-134.357-7.221-47.574-11.023-99.816-19.936-147.049l-.266.079-.782-5.33-76.077-4.7-2.96,49.706.234,0c-3.973,71.393-11.143,171.95-15.662,241.088L201.3,509.7c6.643-67.786,16.923-166.556,23.246-237.767,7.261,34.669,12.2,70.568,18.515,104.941C244.32,419.9,245.388,464.877,245.269,507.776Z" fill="#262626"></path>
      <path d="M216.369,525.04a4.11,4.11,0,0,0,4.077-4.428h0a4.11,4.11,0,0,0-2.659-3.529L193.344,508.9a3.461,3.461,0,0,0-2.872.319,19.1,19.1,0,0,1-11.468,3.4,17.035,17.035,0,0,1-8.82-3.222,1.547,1.547,0,0,0-2.528,1.2v11.952a2.678,2.678,0,0,0,2.689,2.678Z" fill="#c1d8ed"></path>
      <path d="M300.1,525.04a4.108,4.108,0,0,0,4.076-4.428h0a4.107,4.107,0,0,0-2.659-3.529L277.078,508.9a3.461,3.461,0,0,0-2.872.319,19.1,19.1,0,0,1-11.468,3.4,17.038,17.038,0,0,1-8.821-3.222,1.546,1.546,0,0,0-2.527,1.2v11.952a2.678,2.678,0,0,0,2.689,2.678Z" fill="#c1d8ed"></path>
    </g>
    <g>
      <path d="M212.661,95.332c.011-.18.011-.36.011-.54,0-1.82-.071-3.8-.25-5.96l2.259-.42,13.71-2.54a58.19,58.19,0,0,0,.17,10.66c.04.4.09.81.151,1.22a.508.508,0,0,0,.019.11q.12.81.27,1.62.09.525.211,1.05c.079.45.189.89.309,1.33s.24.87.38,1.3.271.85.43,1.26a16.775,16.775,0,0,0,1.06,2.35v.01a11.724,11.724,0,0,0,3.12,3.82h-25.12C210.962,107.892,212.581,103.2,212.661,95.332Z" fill="#E98862"></path>
      <path d="M231.408,106.8,218.136,96.643l10.424-.108A28.756,28.756,0,0,0,231.408,106.8Z" opacity="0.15"></path>
      <path d="M203.353,80.668c1.106,6.389,4.593,12.438,10.228,14.5,6.689,2.449,11.644,2.615,19.357,2.615,10.525,0,10.178-10.976,10.473-22.038.3-11.106-.586-23.018-4.746-26.888-8.3-7.725-32.673-2.833-35.637,10.087C201.494,65.628,202.3,74.588,203.353,80.668Z" fill="#E98862"></path>
      <path d="M249.052,55.279s4.311-.962,3.131-5.261c-.783-2.85-4.435-2.217-4.435-2.217s3.458-.633,3.458-3.652c0-1.9-1.461-5.125-5.871-3.283-5.174,2.161-11.074,1.883-15.56,1.129a51.859,51.859,0,0,0-7.708-1.088l-.013,0v0a29.662,29.662,0,0,0-8.814,1.179c-8.02,2.4-20.158,9.591-17.578,25.893,2.881,18.194,11.418,25.152,15.174,27.384a1.711,1.711,0,0,0,2.518-.957c1.066-3.409,2.9-11.989,2.388-29.681,24.652-1.21,31.744-1.576,31.744-1.576s5.805.217,5.805-4.022S249.052,55.279,249.052,55.279Z" fill="#0f1011"></path>
      <g>
        <circle cx="228.372" cy="74.298" r="1.449" fill="#0f1011"></circle>
        <circle cx="239.803" cy="73.361" r="1.449" fill="#0f1011"></circle>
        <path d="M242.314,70.273h-.009l-3.838-.048a.681.681,0,0,1,.008-1.361h.009l3.839.048a.681.681,0,0,1-.009,1.361Z" fill="#0f1011"></path>
        <path d="M225.244,71.673a.681.681,0,0,1-.158-1.343l3.784-.911a.681.681,0,0,1,.318,1.324l-3.784.911A.679.679,0,0,1,225.244,71.673Z" fill="#0f1011"></path>
      </g>
      <path d="M220.834,77.844a6.143,6.143,0,1,1-12.244,1,6.041,6.041,0,0,1,5.62-6.624C218.588,72.081,220.557,74.463,220.834,77.844Z" fill="#E98862"></path>
      <g opacity="0.15">
        <path d="M234.8,82.335a.5.5,0,0,1-.147-.978l2.947-.905-2.061-4.59a.5.5,0,0,1,.912-.41l2.293,5.107a.5.5,0,0,1-.309.683l-3.488,1.071A.5.5,0,0,1,234.8,82.335Z"></path>
      </g>
      <path d="M229.042,85.71s5.349.564,9.1-.746c0,0-.03,3.523-4.262,3.87S229.042,85.71,229.042,85.71Z" fill="#f8fcff"></path>
    </g>
    <g>
      <path d="M312.86,86.963l9.348,5.419s7.92.73,6.419-11.292c-.212-1.7-1.223-3.624-5.894-2.051.9-2.056,1.97-4.94,1.064-5.362C321.414,72.567,314.659,81.875,312.86,86.963Z" fill="#E98862"></path>
      <g opacity="0.15">
        <path d="M312.86,86.963l9.348,5.419s7.92.73,6.419-11.292c-.212-1.7-1.223-3.624-5.894-2.051.9-2.056,1.97-4.94,1.064-5.362C321.414,72.567,314.659,81.875,312.86,86.963Z"></path>
      </g>
      <g>
        <path d="M160.478,249.831c0,2.98,1.573,12.943-.958,13.654-1.517.427-3.309-7-3.309-7" fill="#E98862"></path>
        <path d="M148.53,248.266s-8.264,20.114,1.162,31.669a1.887,1.887,0,0,0,3.346-1.081c.458-7.791,2.029-23.794,7.166-21.925V244.366" fill="#E98862"></path>
      </g>
      <g>
        <path d="M264.962,223.751c-4.19,9.63-86.52,13.63-87.62-3.31-.7-10.78,8.8-20.19,8.8-41.2s-14.26-42.77,1.49-58.52c4.571-4.57,7.39-12.59,17.01-12.6.72,5.61,34.78,5.63,35.04.13,1.3.02,2.31.04,2.94.07,33.18,1.43,11.408,39.873,11.088,67.613C253.32,208.394,269.282,213.831,264.962,223.751Z" fill="#fff"></path>
        <path d="M239.683,108.337c-.26,5.5-3.25,13.59-12.48,14.2-12.3.81-21.84-8.72-22.56-14.33h.03C216.783,108.207,232.623,108.227,239.683,108.337Z" fill="#E98862"></path>
        <path d="M310.5,85.552l-23.157,58.067s-20.2-17.989-25.262-25.371c-3.657-5.335-7.75-9.74-17.034-10.147-.545-.024-8.726-.388-9.058-.056-2.01,2.01-.56,37.613.44,57.293,1.092,21.3-.031,47.9.984,63.192a7.269,7.269,0,0,0,8.333,6.713c10.782-1.648,19.19-4.456,20.416-7.273,4.32-9.92-5.649-20.262-5.259-52.722.09-7.854,1.3-16.536,2.292-24.979l20.4,20.491a10.9,10.9,0,0,0,17.852-3.653l29.3-73.477Z" fill="#FBAAFD"></path>
      </g>
      <path d="M209.281,115.31c-1.5-7.927-.7-7.366-4.462-7.369-9.619.01-17.686,3.137-22.256,7.707a20.13,20.13,0,0,0-4.8,7.543l-.094-.041L153.5,177.574a10.9,10.9,0,0,0-.841,2.971l-9.391,69.829,21.609,2.906L174.058,185l9.54-21.478a62.221,62.221,0,0,1,2.544,15.718c0,21.01-9.5,30.42-8.8,41.2.431,6.733,3.873,15.251,29.824,17.076a8.218,8.218,0,0,0,8.734-7.2C220.876,188.961,211.824,133.885,209.281,115.31Z" fill="#FBAAFD"></path>
      <g>
        <path d="M324.876,65.731,369.772,71,363.83,35,322.369,54.52A2.474,2.474,0,0,0,320.406,54a2.5,2.5,0,0,0-2.059,2.874l5.2,31.535a2.5,2.5,0,1,0,4.933-.815Z" fill="#9ebcea"></path>
        <ellipse cx="366.802" cy="53.001" rx="7.435" ry="18.246" transform="translate(-3.735 60.433) rotate(-9.371)" fill="#c1d8ed"></ellipse>
        <path d="M365.729,54.367a6.154,6.154,0,0,1-4.458,6.948,41.688,41.688,0,0,1-1.8-7.1,44.158,44.158,0,0,1-.533-4.95A6.136,6.136,0,0,1,365.729,54.367Z" fill="#fff"></path>
      </g>
      <path d="M327.077,74.786c-2,0-5.95,1.673-6.275,4.04-.55,4,1.851,11.761,4.108,11.851s5.5-1.554,5.6-4.2S328.7,74.786,327.077,74.786Z" fill="#E98862"></path>
    </g>
  </g>
  <g>
    <path d="M108.158,492.236s-4.365-161.278-46.226-163.975S96.26,502.693,96.26,502.693" fill="#dee8f5"></path>
    <path d="M110.023,481.213s52.185-116.042,17.44-139.545-32.99,142.546-32.99,142.546" fill="#8ddbe0"></path>
    <rect x="74.026" y="471.218" width="46.918" height="54.008" fill="#AAAAAA"></rect>
  </g>
  <g>
    <g>
      <path d="M600.4,352.547a3.507,3.507,0,0,1-4.771,1.364,3.663,3.663,0,0,0-3.465.622c-1.975,1.827-2.906,3.259-3.111,4.823H570.579a25.276,25.276,0,0,0-.429-3.316,14.68,14.68,0,0,0-4.035-7.905,3.309,3.309,0,0,0-1.924-1.034,3.509,3.509,0,1,1-3.088-6.3c2.974-1.478,6.724-.645,9.772,2.175a17.851,17.851,0,0,1,2.529,2.9,30.931,30.931,0,0,0-1.307-5.268,12.233,12.233,0,0,0-3.739-5.56,3.514,3.514,0,0,1,4.253-5.594,18.926,18.926,0,0,1,6.1,8.773c.125.349.245.7.354,1.062,2.186-5.445,4.423-10.052,8.938-12.706a3.513,3.513,0,0,1,3.562,6.056c-2.757,1.621-4.407,5.28-6.267,9.978a26.343,26.343,0,0,1,7.254-5.862,3.511,3.511,0,1,1,3.362,6.164,19.367,19.367,0,0,0-5.594,4.635,10.165,10.165,0,0,1,8.722.211A3.515,3.515,0,0,1,600.4,352.547Z" fill="#8ddbe0"></path>
      <rect x="563.672" y="359.356" width="32.646" height="9.492" fill="#dee8f5"></rect>
      <path d="M596.316,368.848v10.406a4.882,4.882,0,0,1-4.881,4.88H568.547a4.882,4.882,0,0,1-4.881-4.88V368.848Z" fill="#c1d8ed"></path>
    </g>
    <g>
      <g>
        <rect x="494.014" y="439.2" width="8.745" height="86.027" fill="#c1d8ed"></rect>
        <rect x="486.818" y="439.2" width="8.745" height="86.027" fill="#dee8f5"></rect>
      </g>
      <g>
        <rect x="602.936" y="439.2" width="8.745" height="86.027" fill="#c1d8ed"></rect>
        <rect x="595.739" y="439.2" width="8.745" height="86.027" fill="#dee8f5"></rect>
      </g>
      <g>
        <rect x="517.999" y="439.2" width="8.745" height="86.027" fill="#c1d8ed"></rect>
        <rect x="510.802" y="439.2" width="8.745" height="86.027" fill="#dee8f5"></rect>
      </g>
      <g>
        <rect x="626.921" y="439.2" width="8.745" height="86.027" fill="#c1d8ed"></rect>
        <rect x="619.724" y="439.2" width="8.745" height="86.027" fill="#dee8f5"></rect>
      </g>
      <rect x="518.053" y="384.134" width="117.612" height="57.128" fill="#c1d8ed"></rect>
      <rect x="486.818" y="384.134" width="117.612" height="57.128" fill="#dee8f5"></rect>
      <g opacity="0.53">
        <rect x="493.145" y="392.255" width="104.958" height="40.633" fill="#f3f5fd"></rect>
      </g>
      <circle cx="545.623" cy="412.572" r="4.662" fill="#fff"></circle>
    </g>
  </g>
  <g>
    <path d="M562.524,99.253l9.643,14.394a6.055,6.055,0,0,1-1.826,8.507l-4.814,3.226a7.393,7.393,0,0,1-1.2.651,3.88,3.88,0,0,0-1.84,5.425c.475.862,1.041,1.788,1.762,2.865.76,1.134,1.432,2.069,2.076,2.89a4,4,0,0,0,5.932.454,7.3,7.3,0,0,1,1.142-.944l4.875-3.26a6.056,6.056,0,0,1,8.229,1.771l9.643,14.4a6.153,6.153,0,0,1-1.58,8.377c-11.3,8.083-24.814.938-38.017-18.772-13.119-19.582-11.484-34.9-2.5-41.575A5.984,5.984,0,0,1,562.524,99.253Z" fill="#AAAAAA"></path>
    <path d="M593.373,135.122l6.749-4.963h44.349V98.349h-51.1Z" fill="#c1d8ed"></path>
  </g>
  <g>
    <rect x="444.591" width="84.506" height="54.24" fill="#dee8f5"></rect>
    <polygon points="478.927 9.706 499.314 27.12 478.927 44.534 478.927 9.706" fill="#fff"></polygon>
  </g>
  <g>
    <g>
      <circle cx="442.897" cy="185.159" r="37.907" fill="#AAAAAA"></circle>
      <g opacity="0.29">
        <circle cx="442.897" cy="185.159" r="24.574" fill="#fff"></circle>
      </g>
    </g>
    <path d="M434.854,193.936l2.292-3.554a8.351,8.351,0,0,0,5.1,2.1c2.026,0,2.917-.841,2.917-2.467,0-3.678-9.435-3.611-9.435-10.061,0-4.147,2.872-6.788,7.4-6.788a8.863,8.863,0,0,1,6.805,3.033l-2.629,3.011a5.526,5.526,0,0,0-3.893-1.8c-1.72,0-2.653.694-2.653,2.3,0,3.408,9.435,3.11,9.435,9.943,0,4.1-2.716,7.073-7.948,7.073A11.887,11.887,0,0,1,434.854,193.936Zm6.286-24.271h3.487v5.148H441.14Zm0,24.914h3.487v5.648H441.14Z" fill="#fff"></path>
  </g>
</svg>